<svg xmlns="http://www.w3.org/2000/svg" width="16" height="19" viewBox="0 0 16 19" fill="none">
  <path d="M12.7776 9.61061C12.7695 8.1205 13.4435 6.99581 14.8077 6.16752C14.0444 5.07531 12.8913 4.47439 11.3687 4.35665C9.92731 4.24296 8.35193 5.19712 7.77537 5.19712C7.16634 5.19712 5.76961 4.39725 4.67334 4.39725C2.40773 4.43379 0 6.20406 0 9.8055C0 10.8693 0.194892 11.9683 0.584676 13.1024C1.10439 14.5925 2.98022 18.2468 4.93726 18.1858C5.96044 18.1615 6.68317 17.4591 8.01493 17.4591C9.30609 17.4591 9.97603 18.1858 11.117 18.1858C13.0902 18.1574 14.7874 14.8361 15.2828 13.342C12.6355 12.0955 12.7776 9.68775 12.7776 9.61061ZM10.4795 2.94368C11.5879 1.62816 11.4864 0.430386 11.454 0C10.4754 0.0568435 9.34263 0.665881 8.69705 1.41703C7.98651 2.22096 7.5683 3.21572 7.65763 4.33634C8.71735 4.41755 9.68369 3.87348 10.4795 2.94368Z" fill="white"/>
</svg>