<svg width="31" height="31" viewBox="0 0 31 31" fill="none" xmlns="http://www.w3.org/2000/svg">
<g id="Group 2">
<circle id="Ellipse 1" cx="15.5" cy="15.5" r="15.5" fill="#87FF4F"/>
<path id="Vector" d="M18.9571 12.6507V11.701C18.9571 9.60616 17.2529 7.90195 15.1581 7.90195C13.0633 7.90195 11.3591 9.60616 11.3591 11.701V12.6507H8.5098V20.7236C8.5098 22.035 9.57284 23.098 10.8842 23.098H19.432C20.7433 23.098 21.8064 22.035 21.8064 20.7236V12.6507H18.9571ZM13.2586 11.701C13.2586 10.6536 14.1107 9.80146 15.1581 9.80146C16.2055 9.80146 17.0576 10.6536 17.0576 11.701V12.6507H13.2586V11.701ZM18.0073 15.2625C17.6139 15.2625 17.295 14.9436 17.295 14.5502C17.295 14.1568 17.6139 13.8379 18.0073 13.8379C18.4008 13.8379 18.7197 14.1568 18.7197 14.5502C18.7197 14.9436 18.4008 15.2625 18.0073 15.2625ZM12.3088 15.2625C11.9154 15.2625 11.5965 14.9436 11.5965 14.5502C11.5965 14.1568 11.9154 13.8379 12.3088 13.8379C12.7022 13.8379 13.0211 14.1568 13.0211 14.5502C13.0211 14.9436 12.7022 15.2625 12.3088 15.2625Z" fill="black"/>
</g>
</svg>
